<?xml version="1.0" encoding="UTF-8"?><svg id="Layer_2" xmlns="http://www.w3.org/2000/svg" viewBox="0 0 139.65 90.29"><defs><style>.cls-1{fill:#fff;}</style></defs><g id="Main"><g><path class="cls-1" d="M87.47,13.38s.03-.05,.04-.14l-.04,.14Z"/><path class="cls-1" d="M61.36,50.05v-.04c-.03-.49-.07-.99-.16-1.47-.6-3.2-2.69-5.95-4.91-8.23-3.68-3.78-8.27-6.47-12.19-9.98-1.62-1.44-3.28-3.05-4.64-4.86,2.7-2.6,6.86-4.19,9.99-5.27,8.02-2.76,16.54-4.05,24.91-5.19,3.03-.41,10.94-1.47,12.78-1.72,.24-.03,.43-.2,.5-.43l3.67-12.07c.13-.42-.22-.84-.66-.78-3.92,.5-19.13,2.46-24.16,3.29-6.95,1.16-14.08,2.54-20.57,5.36-4.31,1.88-8.91,4.73-9.25,9.8,0,0,0,0,0,0,.02,1.04,.03,3.03,.04,6.47,0,3.37,0,5.35-.01,6.42,0,.01,0,.02,0,.03,0,.03,0,.06,0,.09,.03,.55,.09,1.1,.21,1.64,.29,1.26,.84,2.45,1.51,3.55,2.06,3.4,5.14,6.16,8.22,8.62,3.45,2.76,7.16,5.13,10.18,8.39,.77,.83,1.52,1.72,2.17,2.67-.76,.95-1.64,1.82-2.57,2.6-3.38,2.84-7.46,4.82-11.51,6.51-9.79,4.08-20.22,6.57-30.54,8.9-3.54,.8-7.09,1.55-10.63,2.34-.22,.05-.4,.22-.46,.44L.02,89.53c-.12,.44,.27,.84,.71,.75,3.34-.71,14.54-3.16,20.58-4.63,8.19-1.99,16.4-4.21,24.17-7.52,3.28-1.39,6.51-2.99,9.41-5.07,2.22-1.59,4.35-3.55,5.56-6.04,.55-1.13,.85-2.33,.93-3.57,0-.04,0-.07,0-.11,0-.09,0-.2,0-.32,0,.08,0,.16,0,.24,.22-3.92,.07-7.9,0-11.82,0-.46-.01-.93-.04-1.39Z"/><path class="cls-1" d="M77.26,33.06l-2.41,17.17c-.08,.56,.58,.91,1,.54l11.61-10.18c.11-.1,.18-.23,.2-.37l2.41-17.17c.08-.56-.58-.91-1-.54l-11.61,10.18c-.11,.1-.18,.23-.2,.37Z"/><path class="cls-1" d="M139.05,21.43h-10.18c-.3,0-.56,.22-.6,.52l-8.25,58.7c-.08,.56,.58,.91,1,.54l11.61-10.18c.11-.1,.18-.23,.2-.37l6.82-48.52c.05-.37-.23-.69-.6-.69Z"/><path class="cls-1" d="M122.23,32.83h-10.18c-.3,0-.56,.22-.6,.52l-4.51,32.08c-.08,.56,.58,.91,1,.54l11.61-10.18c.11-.1,.18-.23,.2-.37l3.08-21.9c.05-.37-.23-.69-.6-.69Z"/><path class="cls-1" d="M115.97,70.87h-31.91c-.37,0-.65-.33-.6-.69l1.97-14c.04-.3,.3-.52,.6-.52h6.38c.37,0,.65,.33,.6,.69l-1.28,9.09c-.08,.56,.58,.91,1,.54l11.61-10.18c.11-.1,.18-.23,.2-.37l2.01-14.3c.05-.37-.23-.69-.6-.69h-10.48c-.15,0-.29,.05-.4,.15l-21.35,18.72c-.11,.1-.18,.23-.2,.37l-3.08,21.9c-.05,.37,.23,.69,.6,.69h33.3c.15,0,.29-.05,.4-.15l11.62-10.19c.42-.37,.16-1.07-.4-1.07Z"/><path class="cls-1" d="M93.21,32.83h10.48c.15,0,.29-.05,.4-.15l11.62-10.19c.42-.37,.16-1.07-.4-1.07h-20.67c-.3,0-.56,.22-.6,.52l-1.43,10.19c-.05,.37,.23,.69,.6,.69Z"/></g></g></svg>